<?xml version="1.0" encoding="UTF-8" standalone="no"?>
<svg
   xmlns:dc="http://purl.org/dc/elements/1.1/"
   xmlns:cc="http://creativecommons.org/ns#"
   xmlns:rdf="http://www.w3.org/1999/02/22-rdf-syntax-ns#"
   xmlns:svg="http://www.w3.org/2000/svg"
   xmlns="http://www.w3.org/2000/svg"
   id="svg8"
   version="1.1"
   viewBox="0 0 67.733332 67.733335"
   height="256"
   width="256">
  <defs
     id="defs2" />
  <metadata
     id="metadata5">
    <rdf:RDF>
      <cc:Work
         rdf:about="">
        <dc:format>image/svg+xml</dc:format>
        <dc:type
           rdf:resource="http://purl.org/dc/dcmitype/StillImage" />
        <dc:title></dc:title>
      </cc:Work>
    </rdf:RDF>
  </metadata>
  <g
     transform="translate(0,-229.26665)"
     id="layer1">
    <g
       transform="matrix(1.2937939,0,0,1.2937939,-9.4332838,-77.373549)"
       id="g869">
      <path
         style="opacity:1;vector-effect:none;fill:#2ecc71;fill-opacity:1;fill-rule:nonzero;stroke:none;stroke-width:38.92129517;stroke-linecap:butt;stroke-linejoin:miter;stroke-miterlimit:4;stroke-dasharray:none;stroke-dashoffset:0;stroke-opacity:1;paint-order:fill markers stroke"
         d="m 39.353516,67.427734 v 49.943356 l -11.601563,11.48438 h 19.455078 l 6.189453,-6.07617 c 0,0 0.382582,-0.28989 0.492188,-0.53711 0.07472,-0.16895 0.05469,-0.60938 0.05469,-0.60938 V 82.078125 h 45.84961 c 4.982508,4.831937 9.964748,9.664147 14.947258,14.496094 3.44532,-3.34114 6.89063,-6.68226 10.33594,-10.023438 -6.57226,-6.373682 -13.14455,-12.747375 -19.71679,-19.121093 h -7.425783 v -0.002 z m 98.900394,31.902344 c -3.44532,3.341182 -6.89063,6.682302 -10.33594,10.023442 6.57227,6.37368 13.14453,12.74741 19.7168,19.12109 -6.57682,6.53839 -13.15365,13.07684 -19.73047,19.61523 -9.23619,9.18181 -18.4728,18.36314 -27.70899,27.54493 h -0.004 l -14.736332,14.65039 h 0.0039 20.671872 c 10.70247,-10.63934 21.40495,-21.27864 32.10742,-31.91797 10.02279,-9.9642 20.04557,-19.92839 30.06836,-29.89258 -10.01758,-9.71482 -20.03515,-19.42967 -30.05273,-29.144532 z M 27.751953,128.85742 39.353516,140.3418 v 49.94336 H 78.359375 L 93.095703,175.63477 H 53.943359 v -39.55469 c 0,0 0.02003,-0.44043 -0.05469,-0.60938 -0.109606,-0.24722 -0.492188,-0.53711 -0.492188,-0.53711 l -6.189453,-6.07617 z"
         transform="matrix(0.26458333,0,0,0.26458333,0,229.26665)"
         id="path1017" />
      <path
         id="path1103"
         d="m 56.506444,279.61293 v -13.21418 l 3.06958,-3.03858 h -5.147489 l -1.637626,1.60765 c 0,0 -0.101225,0.0767 -0.130225,0.14211 -0.01977,0.0447 -0.01447,0.16124 -0.01447,0.16124 v 10.46551 H 40.515172 c -1.318289,-1.27845 -2.636507,-2.55698 -3.954796,-3.83543 -0.911574,0.88401 -1.823146,1.76802 -2.734717,2.65204 1.73891,1.68637 3.477829,3.37274 5.216734,5.05912 h 1.964739 v 5.2e-4 z M 30.339049,271.1721 c 0.911574,-0.88402 1.823145,-1.76803 2.734717,-2.65204 -1.738913,-1.68637 -3.477824,-3.37275 -5.216737,-5.05912 1.740117,-1.72995 3.480237,-3.45991 5.220354,-5.18986 2.443742,-2.42936 4.887595,-4.85858 7.331337,-7.28793 h 10e-4 l 3.898987,-3.87625 h -10e-4 -5.469434 c -2.831695,2.81499 -5.663393,5.62997 -8.495088,8.44496 -2.651863,2.63636 -5.303724,5.27272 -7.955587,7.90908 2.650485,2.57038 5.300967,5.14077 7.951451,7.71116 z m 29.236975,-7.81245 -3.06958,-3.03857 V 247.1069 h -10.3203 l -3.898987,3.87625 h 10.359058 v 10.46551 c 0,0 -0.0053,0.11653 0.01447,0.16123 0.029,0.0654 0.130225,0.14211 0.130225,0.14211 l 1.637626,1.60765 z"
         style="opacity:1;vector-effect:none;fill:#2980b9;fill-opacity:1;fill-rule:nonzero;stroke:none;stroke-width:10.29792595;stroke-linecap:butt;stroke-linejoin:miter;stroke-miterlimit:4;stroke-dasharray:none;stroke-dashoffset:0;stroke-opacity:1;paint-order:fill markers stroke" />
    </g>
  </g>
</svg>
